<svg xmlns="http://www.w3.org/2000/svg" width="50" height="50">
<path d="M25 0C12.656 0 0 2.656 0 21.875c0 10.313 3.594 16.719 10.938 19.688v5.78c0 1.094.624 2.032 1.562 2.5.313.157.781.157 1.094.157.625 0 1.406-.312 1.875-.781l5.625-5.625c1.25 0 2.5.156 3.906.156 12.344 0 25-2.656 25-21.875S37.344 0 25 0m-.781 15.938c2.812 0 5.156 2.343 5.156 5.156 0 .937-.625 1.562-1.562 1.562s-1.563-.625-1.563-1.562c0-1.094-.937-2.032-2.031-2.032-.938 0-1.563-.625-1.563-1.562s.625-1.562 1.563-1.562m-1.563-3.282c0-.937.625-1.562 1.563-1.562 5.468 0 10 4.531 10 10 0 .937-.625 1.562-1.563 1.562s-1.562-.625-1.562-1.562c0-3.75-3.125-6.875-6.875-6.875-.938 0-1.563-.781-1.563-1.563M35.47 32.031c-.625 1.875-2.969 3.438-5 3.75-.469.157-.938.157-1.563.157-1.25 0-3.125-.313-6.406-1.72-3.75-1.562-7.5-4.843-10.469-9.062V25c-.937-1.406-2.656-4.062-2.656-6.875 0-3.437 1.719-5.156 2.344-5.937.937-.782 2.031-1.25 3.281-1.25h.781c1.094 0 1.875.312 2.656 1.874l.625 1.25c.47 1.25 1.094 2.657 1.25 2.813.47.938.47 1.719 0 2.5-.156.469-.468.781-.78 1.094q-.235.468-.47.468l-.312.313c.469.781 1.406 2.188 2.656 3.281 1.875 1.719 3.282 2.188 4.063 2.5.312-.312.625-.937 1.093-1.406l.157-.312c.781-1.094 2.031-1.407 3.281-.938.625.313 4.063 1.875 4.063 1.875l.312.156c.469.313 1.094.469 1.406 1.094.469 1.406 0 3.438-.312 4.531m2.031-9.375c-.937 0-1.562-.625-1.562-1.562 0-6.407-5.313-11.719-11.72-11.719-.937 0-1.562-.625-1.562-1.562s.625-1.563 1.563-1.563c8.125 0 14.843 6.719 14.843 14.844 0 .937-.624 1.562-1.562 1.562m0 0" style="stroke:none;fill-rule:nonzero;fill:#d07ea5;fill-opacity:1"/></svg>