<svg xmlns="http://www.w3.org/2000/svg" width="50" height="50"><path d="M39.55 35.305c-.6 1.703-2.995 3.113-4.905 3.527-1.31.277-3.012.496-8.758-1.883-6.453-2.676-15.41-12.195-15.41-18.535 0-3.223 1.859-6.98 5.109-6.98 1.566 0 1.91.03 2.426 1.265.601 1.453 2.074 5.043 2.25 5.41.722 1.508-.739 2.391-1.793 3.703-.34.395-.723.82-.293 1.56.426.718 1.894 3.112 4.054 5.038 2.79 2.485 5.051 3.278 5.864 3.613.601.25 1.32.196 1.761-.277.56-.601 1.25-1.601 1.954-2.586.5-.707 1.132-.793 1.793-.543.449.153 6.136 2.793 6.375 3.219.18.305.18 1.762-.426 3.469M25.004 0h-.012C11.211 0 0 11.215 0 25c0 5.465 1.762 10.54 4.762 14.652l-3.117 9.29 9.609-3.07A24.8 24.8 0 0 0 25.004 50C38.789 50 50 38.785 50 25S38.79 0 25.004 0" style="stroke:none;fill-rule:evenodd;fill:#d07ea5;fill-opacity:1"/></svg>