<svg xmlns="http://www.w3.org/2000/svg" width="100" height="100"><path d="M97.527 63.172q.061-.199.121-.402h-.003a49.4 49.4 0 0 0 1.695-12.825c0-4.43-.594-8.715-1.692-12.797l.008-.003c-.043-.16-.097-.317-.14-.473a55 55 0 0 0-.477-1.613q-.136-.423-.277-.844c-.082-.238-.153-.48-.239-.715h-.015a49.3 49.3 0 0 0-7.695-14.016L66.406 30.687V3.372A49.2 49.2 0 0 0 51.133.582h-2.375a49.2 49.2 0 0 0-15.274 2.79v27.316l-22.41-11.204A49.3 49.3 0 0 0 3.38 33.5h-.016c-.082.234-.156.477-.238.715-.094.281-.187.558-.277.84a59 59 0 0 0-.477 1.613c-.043.16-.098.316-.14.477h.007a49.3 49.3 0 0 0-1.687 12.8c0 4.438.594 8.735 1.695 12.825h-.004c.035.136.078.265.117.402q.24.863.508 1.715.124.386.254.773c.086.254.164.508.254.762h.016a49.3 49.3 0 0 0 7.703 14.008l22.39-11.2v27.29a49.3 49.3 0 0 0 16.461 2.82c5.774 0 11.309-1 16.461-2.824V69.23l22.39 11.196a49.4 49.4 0 0 0 7.7-14.004h.016c.09-.254.168-.508.254-.762q.13-.386.254-.773.269-.851.507-1.715m0 0" style="stroke:none;fill-rule:nonzero;fill:#f3f4f5;fill-opacity:1"/><path d="M59.82 1.54a49.6 49.6 0 0 0-8.687-.958h-2.375c-2.969.07-5.875.387-8.688.957v38.547H1.535a49.7 49.7 0 0 0-.984 9.86c0 3.386.34 6.695.992 9.89H40.07v38.512c3.192.648 6.493.992 9.875.992 3.383 0 6.684-.344 9.875-.992V59.836h38.528a49.7 49.7 0 0 0 .004-19.754H59.82Zm0 0" style="stroke:none;fill-rule:nonzero;fill:#c00;fill-opacity:1"/><path d="M94.117 72.047a49 49 0 0 0 2.395-5.629H82.867ZM90.793 22.176 68.145 33.5h14.722l11.262-5.633a49 49 0 0 0-3.336-5.691M5.762 27.867A49 49 0 0 0 3.363 33.5h13.66ZM9.11 77.738l22.636-11.32H17.023l-11.25 5.629a49 49 0 0 0 3.336 5.691m0 0" style="stroke:none;fill-rule:nonzero;fill:#c00;fill-opacity:1"/><path d="m11.074 19.484 22.41 11.203v-27.3a49.44 49.44 0 0 0-22.41 16.097M66.406 3.387v27.3l22.406-11.203A49.5 49.5 0 0 0 66.407 3.387M33.484 80.426V69.23l-22.39 11.2a49.5 49.5 0 0 0 22.39 16.074ZM66.406 69.23v27.274a49.5 49.5 0 0 0 22.39-16.078Zm0 0" style="stroke:none;fill-rule:nonzero;fill:#006;fill-opacity:1"/></svg>