<svg xmlns="http://www.w3.org/2000/svg" width="100" height="100"><path d="M99.34 49.945C99.34 22.665 77.223.551 49.945.551 22.665.55.551 22.664.551 49.945c0 27.278 22.113 49.395 49.394 49.395 27.278 0 49.395-22.117 49.395-49.395m0 0" style="stroke:none;fill-rule:nonzero;fill:#0d5eaf;fill-opacity:1"/><path d="M96.516 33.48H55.434v10.977h43.593a49 49 0 0 0-2.511-10.977M55.434 22.504h35.582a49.6 49.6 0 0 0-10.04-10.977H55.435Zm0 0" style="stroke:none;fill-rule:nonzero;fill:#f3f4f5;fill-opacity:1"/><path d="M.86 55.434A49.3 49.3 0 0 0 3.37 66.41h93.145a48.8 48.8 0 0 0 2.511-10.976H33.48V33.48h21.954V22.504H33.48V3.37a49.3 49.3 0 0 0-10.976 5.5v13.633H8.87a49.3 49.3 0 0 0-5.5 10.976h19.133v21.954ZM8.871 77.387a49.8 49.8 0 0 0 10.04 10.976h62.066a49.8 49.8 0 0 0 10.039-10.976Zm0 0" style="stroke:none;fill-rule:nonzero;fill:#f3f4f5;fill-opacity:1"/></svg>