<svg xmlns="http://www.w3.org/2000/svg" width="50" height="50"><path d="M46.094 0H3.906A3.91 3.91 0 0 0 0 3.906v42.188A3.91 3.91 0 0 0 3.906 50h42.188A3.91 3.91 0 0 0 50 46.094V3.906A3.91 3.91 0 0 0 46.094 0M18.008 35.46h-4.875V19.864h4.875Zm-2.57-17.55h-.04c-1.765 0-2.906-1.191-2.906-2.707 0-1.543 1.18-2.703 2.977-2.703s2.898 1.16 2.937 2.703c.012 1.508-1.133 2.707-2.968 2.707M37.5 35.46h-5.527v-8.07c0-2.109-.86-3.554-2.762-3.554-1.457 0-2.266.977-2.64 1.918-.134.332-.118.8-.118 1.277v8.43h-5.476s.07-14.297 0-15.598h5.476v2.453c.324-1.074 2.07-2.597 4.867-2.597 3.465 0 6.18 2.246 6.18 7.07Zm0 0" style="stroke:none;fill-rule:nonzero;fill:#000;fill-opacity:1"/></svg>