<svg xmlns="http://www.w3.org/2000/svg" width="512" height="512"><path d="M374.313 1.938C379.857 5.2 384.418 9.525 389 14l2.64 2.488c8.932 8.597 14.504 15.807 15.735 28.325-.459 13.73-10.232 22.201-19.316 31.248l-2.332 2.335q-3.841 3.842-7.688 7.678l-5.53 5.53q-5.938 5.94-11.88 11.873-8.593 8.58-17.178 17.166-13.935 13.93-27.874 27.856-13.535 13.521-27.067 27.045l-1.687 1.687-8.379 8.375A378218 378218 0 0 1 209 255c1.352 3.018 2.858 5.105 5.2 7.432l2.008 2.01 2.212 2.185 2.346 2.34c2.603 2.595 5.213 5.182 7.823 7.77q2.798 2.784 5.592 5.569 6.028 6.003 12.065 11.998c6.364 6.323 12.718 12.655 19.071 18.988l8.17 8.145q9.28 9.249 18.566 18.492l1.714 1.707q13.744 13.682 27.499 27.352 14.127 14.045 28.229 28.118a7758 7758 0 0 0 17.412 17.32q5.981 5.933 11.937 11.89 3.433 3.432 6.886 6.844a1360 1360 0 0 1 7.47 7.451c.722.708 1.446 1.415 2.191 2.144 6.637 6.723 11.18 14.198 11.675 23.804-.347 12.764-7.666 20.582-16.348 29.224a403 403 0 0 0-4.35 4.436c-6.45 6.535-11.969 10.978-21.177 12.347-18.745-.02-28.176-11.397-40.743-23.978l-2.748-2.739q-3.731-3.72-7.457-7.446-4.036-4.033-8.077-8.061a32104 32104 0 0 1-17.609-17.584l-11.004-10.994a99788 99788 0 0 1-30.508-30.481l-1.967-1.966-1.97-1.97-5.935-5.933a49401 49401 0 0 0-31.83-31.786 44711 44711 0 0 1-32.729-32.691 18374 18374 0 0 0-18.357-18.332 9705 9705 0 0 1-15.615-15.603q-3.974-3.982-7.961-7.95a2751 2751 0 0 1-8.637-8.64l-2.532-2.508c-7.837-7.903-14.32-15.68-14.824-27.216.263-7.776 1.981-13.616 7.336-19.39l2.45-2.644a719 719 0 0 1 12.203-12.485l2.826-2.84q3.84-3.855 7.685-7.707 4.161-4.171 8.32-8.347a33184 33184 0 0 1 25.703-25.767 92038 92038 0 0 1 43.386-43.455l2.043-2.046a35164 35164 0 0 0 32.804-32.891 28908 28908 0 0 1 33.736-33.807q9.47-9.472 18.919-18.967a6247 6247 0 0 1 16.102-16.13q4.114-4.103 8.206-8.228c2.958-2.985 5.936-5.95 8.916-8.915l2.59-2.632c9.965-9.835 22.73-14.71 36.4-8.5"/></svg>