<svg xmlns="http://www.w3.org/2000/svg" width="512" height="512"><path d="M163.313 1.938c9.181 5.6 16.682 13.909 24.24 21.474l2.747 2.739q3.732 3.72 7.457 7.446 4.036 4.033 8.077 8.061a32104 32104 0 0 1 17.609 17.584l11.004 10.994a99788 99788 0 0 1 30.508 30.481l1.967 1.966 7.905 7.903q15.908 15.9 31.83 31.786a44711 44711 0 0 1 32.729 32.691q9.172 9.172 18.357 18.332a9705 9705 0 0 1 15.615 15.603q3.974 3.982 7.961 7.95c2.887 2.872 5.763 5.756 8.637 8.64l2.532 2.508c7.837 7.903 14.32 15.68 14.825 27.216-.264 7.776-1.982 13.616-7.337 19.39l-2.45 2.644a719 719 0 0 1-12.203 12.485l-2.826 2.84q-3.84 3.855-7.685 7.707-4.161 4.171-8.32 8.347a33184 33184 0 0 1-25.703 25.767 92038 92038 0 0 1-43.386 43.455l-2.043 2.046a35164 35164 0 0 0-32.804 32.891 28908 28908 0 0 1-33.736 33.807 11447 11447 0 0 0-18.919 18.967 6247 6247 0 0 1-16.102 16.13q-4.114 4.103-8.206 8.228c-2.958 2.985-5.936 5.95-8.916 8.915l-2.59 2.632c-6.998 6.906-13.451 11.01-23.524 11-12.238-.391-19.091-6.283-27.563-14.563l-2.898-2.746c-8.387-8.04-14.813-15.44-15.477-27.504.408-14.092 9.968-22.501 19.316-31.811l2.332-2.335q3.841-3.842 7.688-7.678l5.53-5.53q5.938-5.94 11.88-11.873 8.593-8.58 17.178-17.166 13.935-13.93 27.874-27.856 13.535-13.521 27.067-27.045l1.687-1.687 8.379-8.375Q268.274 291.692 303 257c-1.352-3.018-2.858-5.105-5.2-7.432l-2.008-2.01-2.212-2.185-2.346-2.34c-2.603-2.595-5.213-5.182-7.823-7.77l-5.592-5.569q-6.028-6.003-12.065-11.998a15121 15121 0 0 1-19.071-18.988l-6.524-6.503-1.647-1.642q-9.28-9.249-18.565-18.492l-1.714-1.707q-13.744-13.682-27.499-27.352a21074 21074 0 0 1-28.229-28.118 7758 7758 0 0 0-17.412-17.32 4120 4120 0 0 1-11.937-11.89q-3.432-3.432-6.886-6.844a1360 1360 0 0 1-7.47-7.451l-2.191-2.144c-6.637-6.723-11.18-14.198-11.675-23.804.347-12.764 7.666-20.582 16.348-29.224a403 403 0 0 0 4.35-4.436c10.376-10.515 22.972-16.525 37.68-9.843"/></svg>